<?xml version="1.0" standalone="no"?>
<!DOCTYPE svg PUBLIC "-//W3C//DTD SVG 20010904//EN"
 "http://www.w3.org/TR/2001/REC-SVG-20010904/DTD/svg10.dtd">
<svg version="1.0" xmlns="http://www.w3.org/2000/svg"
 width="300.000000pt" height="268.000000pt" viewBox="0 0 300.000000 268.000000"
 preserveAspectRatio="xMidYMid meet">
<metadata>
Created by potrace 1.10, written by Peter Selinger 2001-2011
</metadata>
<g transform="translate(0.000000,268.000000) scale(0.100000,-0.100000)"
fill="#000000" stroke="none">
<path d="M2605 2459 c-77 -21 -196 -53 -265 -70 -134 -33 -152 -40 -157 -56
-2 -6 22 -35 53 -64 31 -30 60 -62 65 -71 7 -14 -52 -78 -322 -349 l-331 -331
-212 210 c-178 178 -214 209 -231 202 -11 -4 -123 -112 -250 -240 l-230 -232
-53 58 -54 57 -269 -269 c-148 -148 -269 -274 -269 -281 0 -17 122 -133 140
-133 8 0 96 83 195 185 99 102 184 185 189 185 5 0 33 -25 63 -55 30 -30 60
-55 66 -55 6 0 118 107 249 237 l238 237 208 -207 c129 -129 215 -207 227
-207 13 0 165 145 425 405 l405 405 72 -72 c90 -89 100 -87 124 28 9 43 37
173 63 288 26 114 45 214 42 222 -7 19 -21 17 -181 -27z m140 -19 c3 -11 4
-30 0 -42 -19 -73 -25 -102 -40 -183 -10 -49 -21 -99 -25 -110 -4 -11 -13 -47
-20 -80 -7 -33 -14 -66 -16 -72 -7 -24 -36 -13 -73 27 -49 52 -88 64 -127 39
-16 -10 -197 -188 -403 -394 -206 -206 -380 -375 -387 -375 -7 0 -89 75 -181
168 -197 197 -224 220 -256 217 -39 -5 -61 -23 -271 -235 -109 -110 -205 -200
-213 -200 -8 0 -30 15 -49 32 -42 40 -79 51 -110 35 -13 -7 -95 -83 -182 -170
-103 -102 -166 -157 -179 -157 -24 0 -86 65 -81 85 3 14 436 460 469 483 16
11 22 10 41 -9 35 -33 68 -53 92 -55 15 -1 82 59 243 220 123 121 230 222 238
224 10 2 91 -71 206 -185 105 -103 192 -189 194 -191 8 -8 54 -9 66 -1 29 18
622 616 635 641 18 34 6 67 -41 120 -19 21 -35 42 -35 47 0 9 155 61 181 61 8
0 43 9 79 21 36 11 83 24 105 29 22 5 56 13 75 18 52 15 58 14 65 -8z"/>
<path d="M2257 1622 c-16 -17 -17 -80 -17 -703 0 -520 3 -688 12 -697 9 -9 71
-12 218 -12 188 0 208 2 223 18 16 17 17 80 17 695 0 664 0 677 -20 697 -19
19 -33 20 -218 20 -180 0 -200 -2 -215 -18z m403 -41 c11 -21 8 -1316 -3
-1328 -4 -3 -88 -7 -187 -7 -150 -1 -182 2 -190 14 -5 9 -9 284 -9 662 0 527
3 650 14 661 10 10 57 14 189 15 160 1 177 -1 186 -17z"/>
<path d="M1596 1091 c-14 -15 -16 -69 -16 -434 0 -364 2 -418 16 -431 13 -14
48 -16 223 -16 148 0 210 3 219 12 17 17 17 864 0 874 -7 4 -105 9 -219 10
-186 2 -209 0 -223 -15z m424 -98 c11 -99 1 -705 -12 -730 -11 -23 -15 -23
-188 -23 -139 0 -180 3 -189 14 -16 19 -27 750 -12 788 l10 28 178 2 c130 2
182 0 192 -9 8 -7 18 -39 21 -70z"/>
<path d="M976 958 c-14 -19 -16 -71 -16 -368 1 -271 3 -349 14 -362 12 -16 35
-18 224 -18 195 0 212 1 224 19 20 28 19 711 -1 734 -12 15 -40 17 -222 17
-203 0 -208 0 -223 -22z m407 -20 c15 -12 17 -47 18 -336 0 -262 -2 -327 -13
-344 -14 -21 -21 -22 -193 -20 -154 2 -179 4 -190 19 -18 25 -14 655 5 677 10
13 41 16 184 16 122 0 177 -4 189 -12z"/>
<path d="M387 767 c-16 -11 -18 -38 -18 -270 0 -185 3 -262 12 -273 15 -19
418 -21 437 -2 17 17 17 529 0 546 -17 17 -408 17 -431 -1z m403 -36 c15 -29
14 -463 -2 -479 -8 -8 -65 -12 -189 -12 -152 0 -178 2 -190 17 -21 25 -24 439
-3 471 14 21 19 22 194 22 167 0 180 -1 190 -19z"/>
</g>
<style>
    @keyframes drawpath0 {
        to {
            stroke-dashoffset: 0;
        }
    }
    @keyframes drawpath1 {
        to {
            stroke-dashoffset: 0;
        }
    }
    @keyframes drawpath2 {
        to {
            stroke-dashoffset: 0;
        }
    }
    @keyframes drawpath3 {
        to {
            stroke-dashoffset: 0;
        }
    }
    @keyframes drawpath4 {
        to {
            stroke-dashoffset: 0;
        }
    }</style></svg>
